<?xml version="1.0" encoding="UTF-8" standalone="no"?>
<svg xmlns="http://www.w3.org/2000/svg" viewBox="10 10 80 80" aria-label="mcp-datahub symbol" style="fill-rule:nonzero;">
  <path fill="#ECE3CE" d="M16.667,43.33C16.667,69.104 37.559,90 63.333,90L63.333,83.333C41.24,83.333 23.333,65.423 23.333,43.33L16.667,43.33Z M63.333,43.333L63.333,63.333C52.285,63.333 43.333,54.378 43.333,43.33C43.333,32.285 52.285,23.333 63.333,23.333C74.382,23.333 83.333,32.285 83.333,43.33L63.333,43.333Z"/>
  <path fill="#FF5A1F" d="M63.333,16.667C48.604,16.667 36.667,28.607 36.667,43.331C36.667,58.06 48.604,70 63.333,70L63.333,76.667C44.922,76.667 30,61.741 30,43.33C30,24.922 44.922,10 63.333,10L63.333,16.667Z"/>
</svg>
