<?xml version="1.0" encoding="UTF-8" standalone="no"?>
<svg xmlns="http://www.w3.org/2000/svg" viewBox="10 10 80 80" aria-label="mcp-s3 symbol" style="fill-rule:nonzero;">
  <path d="M46.666,68.334C46.667,80.3 56.363,90 68.333,90C80.303,90 90,80.3 90,68.333C90,56.359 80.303,46.667 68.333,46.667C56.363,46.667 46.666,56.361 46.666,68.334Z" fill="#FF5A1F"/>
  <path d="M10,23.333C10,30.695 15.972,36.666 23.333,36.666C30.696,36.666 36.665,42.635 36.665,49.999C36.665,57.361 30.697,63.332 23.333,63.332C15.969,63.332 10,69.305 10,76.667C10,84.03 15.97,90 23.333,90C30.696,90 36.666,84.025 36.666,76.667C36.666,54.58 54.573,36.667 76.666,36.665C84.029,36.665 90,30.695 90,23.332C90,15.973 84.029,10 76.667,10C69.305,10 63.333,15.973 63.333,23.335C63.333,30.698 57.363,36.667 50,36.667C42.637,36.667 36.667,30.698 36.667,23.334C36.667,15.972 30.697,10.001 23.333,10.001C15.972,10 10,15.97 10,23.333Z" fill="#ECE3CE"/>
</svg>
