<?xml version="1.0" encoding="UTF-8" standalone="no"?>
<svg xmlns="http://www.w3.org/2000/svg" viewBox="10 10 80 80" aria-label="mcp-data-platform symbol" style="fill-rule:nonzero;">
  <path fill="#ECE3CE" d="M50,83.333C31.59,83.333 16.667,68.408 16.667,50C16.667,31.588 31.591,16.667 50,16.667C68.408,16.667 83.333,31.589 83.333,50L90,50C90,27.91 72.09,10 50,10C27.909,10 10,27.91 10,50C10,72.09 27.909,90 50,90L50,83.333Z M50,70C38.954,70 30,61.045 30,50C30,38.952 38.954,30 50,30C61.045,30 70,38.952 70,50L76.667,50C76.667,35.273 64.727,23.333 50,23.333C35.272,23.333 23.333,35.273 23.333,50C23.333,64.727 35.272,76.667 50,76.667L50,70Z M50,56.667C46.318,56.667 43.333,53.682 43.333,50C43.333,46.318 46.318,43.333 50,43.333C53.682,43.333 56.667,46.318 56.667,50L63.333,50C63.333,42.637 57.363,36.667 50,36.667C42.635,36.667 36.667,42.637 36.667,50C36.667,57.363 42.635,63.333 50,63.333L50,56.667Z"/>
  <path fill="#FF5A1F" d="M56.667,56.667 H90 V90 H56.667 Z"/>
</svg>
