<?xml version="1.0" encoding="UTF-8" standalone="no"?>
<svg xmlns="http://www.w3.org/2000/svg" viewBox="25 25 50 50" aria-label="mcp-trino symbol" style="fill-rule:nonzero;">
  <path fill="#ECE3CE" d="M30,50 a6.667,6.667 0 1,0 13.334,0 a6.667,6.667 0 1,0 -13.334,0 Z M34.966,63.161C38.633,67.344 44,70 50,70C59.904,70 68.107,62.786 69.7,53.333L49.527,53.333C48.04,59.072 42.871,63.333 36.666,63.333C36.083,63.333 35.529,63.234 34.966,63.161Z"/>
  <path fill="#FF5A1F" d="M69.7,46.667C68.107,37.21 59.904,30 50,30C44,30 38.63,32.654 34.965,36.837C35.528,36.766 36.083,36.667 36.667,36.667C42.872,36.667 48.041,40.926 49.528,46.667L69.7,46.667Z"/>
</svg>
